# xmcd
#
# Track frame offsets: 
#        150
#        19131
#        40873
#        70033
#        92122
#        115820
#        137264
#        154274
#        179664
#        203256
#
# Disc length: 2930 seconds
#
# Revision: 0
# Processed by: cddbd v1.5.2PL0 Copyright (c) Steve Scherf et al.
# Submitted via: ExactAudioCopy v0.99pb4
#
DISCID=7b0b700a
DTITLE=Phil Bee and the Buzztones - Live at SBN
DYEAR=2008
DGENRE=Blues
TTITLE0=My Buddy Buddy Friends
TTITLE1=Make It Right
TTITLE2=Down the Line
TTITLE3=Brandy Balloon
TTITLE4=Do I Move You
TTITLE5=Iceman
TTITLE6=It's Allright
TTITLE7=Since I Fell For You
TTITLE8=Ride Your Pony
TTITLE9=I've Got A Feeling
EXTD=
EXTT0=
EXTT1=
EXTT2=
EXTT3=
EXTT4=
EXTT5=
EXTT6=
EXTT7=
EXTT8=
EXTT9=
PLAYORDER=
